<?xml version="1.0" encoding="UTF-8" standalone="no"?>
<svg
   xmlns:dc="http://purl.org/dc/elements/1.1/"
   xmlns:cc="http://creativecommons.org/ns#"
   xmlns:rdf="http://www.w3.org/1999/02/22-rdf-syntax-ns#"
   xmlns:svg="http://www.w3.org/2000/svg"
   xmlns="http://www.w3.org/2000/svg"
   viewBox="0 0 2933.3333 2729.3333"
   height="2729.3333"
   width="2933.3333"
   xml:space="preserve"
   id="svg2"
   version="1.1"><metadata
     id="metadata8"><rdf:RDF><cc:Work
         rdf:about=""><dc:format>image/svg+xml</dc:format><dc:type
           rdf:resource="http://purl.org/dc/dcmitype/StillImage" /></cc:Work></rdf:RDF></metadata><defs
     id="defs6" /><g
     transform="matrix(1.3333333,0,0,-1.3333333,0,2729.3333)"
     id="g10"><g
       transform="scale(0.1)"
       id="g12"><g
         transform="scale(1.28861)"
         id="g14"><path
           id="path16"
           style="fill:#cac3c7;fill-opacity:1;fill-rule:nonzero;stroke:none"
           d="m 14736.6,3765.07 -72.6,70.78 c -561.9,547.88 -699.6,682.21 -699.6,682.21 -108.6,105.92 -214.1,191.29 -315.8,259.58 -4.5,50.91 -9.2,101.89 -14.2,152.88 99.3,20.02 213.3,43.07 344.4,69.53 l 99.3,20.1 c 769.3,155.44 957.9,193.62 957.9,193.62 1182.7,238.94 1188.4,1043.22 1156.2,1255.77 -52.8,208.37 -370.5,947.31 -1553.1,708.29 0,0 -188.6,-38.11 -957.8,-193.55 l -99.4,-20.09 c -70.1,-14.21 -135.3,-27.32 -196.1,-39.66 -104,789.07 -208.1,1578.1 -312.2,2367.13 -26.6,201.27 -54,404.95 -183.2,596.95 -161.2,239.49 -476.1,447.09 -872.6,614.39 h 1 c 0,0 -859.9,289.4 -495,1143.5 -1935.62,-342.7 -3931.6,-343.1 -5866.68,-2 C 6019.78,10792 5161.24,10503 5161.24,10503 h 1.02 c -396.52,-167.3 -711.39,-374.9 -872.61,-614.39 -129.23,-192 -156.71,-395.68 -183.25,-596.95 -136.53,-1034.84 -273.03,-2069.68 -409.56,-3104.51 -67.63,-512.73 -135.12,-1026.46 -176.5,-1540.27 -212.29,-67.91 -448.57,-207.51 -700.4,-461.43 0,0 -135.52,-136.58 -688.2,-693.77 l -71.41,-72.02 C 1507.66,2862.55 1372.15,2725.89 1372.15,2725.89 522.488,1869.31 965.159,1197.8 1110.21,1039.19 c 159.86,-143.804 834.91,-581.019 1684.57,275.57 0,0 135.52,136.65 688.19,693.76 l 71.42,72.02 c 28.08,28.33 54.82,55.25 80.79,81.48 36.68,-167.54 85.13,-338.73 252.04,-486.96 404.71,-359.53 1353.79,-476.25 2200.65,-532.9 642.46,-42.91 1854.19,-72.25 2502.1,-87.77 647.99,15.52 1859.73,44.86 2502.13,87.77 846.9,56.65 1796,173.37 2200.7,532.9 157.8,140.16 209.7,300.72 245.8,459.34 394.7,-384.84 498.6,-486.18 498.6,-486.18 863.8,-842.387 1531.5,-394 1689,-247.56 142.4,161.03 573.8,839.82 -290,1682.13 0,0 -137.7,134.33 -699.6,682.28" /></g><path
         id="path18"
         style="fill:#ffffff;fill-opacity:1;fill-rule:nonzero;stroke:none"
         d="m 16191.9,3973.4 c -1113.1,1085.4 -557.2,1960.1 -373.7,2167.6 8.3,7.8 18.2,16.4 28.7,25.3 5.3,-1.1 11.3,-1.6 16.7,-2.5 -785,140.6 -1034.3,738.6 -1086,942.6 -39.4,259.5 -33.9,1202.9 1262.4,1563.3 -106.9,810.5 -213.8,1620.9 -320.7,2431.4 -27.6,208.7 -56,420 -190.1,619.1 -0.7,1 -1.4,2 -2,3.1 -123.1,181.1 -347.8,262.7 -562.3,219 -405.4,-82.6 -865.9,-127.1 -1300.7,-156.1 -666.3,-44.6 -1923.1,-74.9 -2595.1,-91 -671.9,16.1 -1928.71,46.4 -2595.03,91 -434.75,29 -895.33,73.5 -1300.64,156.1 -214.55,43.7 -439.24,-37.9 -562.27,-219 -0.71,-1 -1.41,-2.1 -2.11,-3.1 -134.01,-199.1 -162.51,-410.4 -190.04,-619.1 -141.61,-1073.3 -283.18,-2146.6 -424.77,-3219.9 -92.68,-702.5 -185.03,-1407 -214.96,-2110.9 9.19,-7.6 17.79,-15 25.26,-21.7 157.99,-172.8 589.78,-817.8 58.6,-1679.8 18.86,-118 39.74,-236.1 65.32,-354 38.27,-176.3 87.38,-357 263.22,-513.2 419.74,-372.9 1404.08,-494 2282.39,-552.7 666.32,-44.5 1923.13,-74.9 2595.03,-91 672,16.1 1928.8,46.5 2595.1,91 878.3,58.7 1862.7,179.8 2282.4,552.7 175.8,156.2 225,336.9 263.2,513.2 14.6,67.3 27.7,134.7 40,202 -41.8,40.8 -57.9,56.6 -57.9,56.6" /><path
         id="path20"
         style="fill:#afa8ac;fill-opacity:1;fill-rule:nonzero;stroke:none"
         d="m 15780.4,6095 c -1.6,28.9 -3.2,57.8 -4.9,86.7 -64.6,15.1 -125.3,33.3 -182.2,54.3 9.8,-144.7 16.8,-289.5 20.7,-434.3 52.1,127.5 115.6,227.3 166.4,293.3" /><path
         id="path22"
         style="fill:#cac3c7;fill-opacity:1;fill-rule:nonzero;stroke:none"
         d="m 15587.3,4878 c -21.8,-234.8 -56.1,-469 -106.6,-702 -32.6,-150.2 -70.3,-284.1 -202.4,-401.5 -361.6,-321.2 -1282.7,-417.1 -1944.1,-461.3 -587.2,-39.2 -1721.9,-66.4 -2262.9,-79.5 -545.3,13.1 -1680.07,40.3 -2267.17,79.5 -661.41,44.2 -1582.53,140.1 -1944.11,461.3 -132.11,117.4 -169.84,251.3 -202.42,401.5 -260.04,1198.4 -97.96,2427.2 58.83,3615.5 l 371.73,2817.7 c 23.44,177.8 45.6,345.8 153.51,506.1 70.32,103.5 189.03,162.9 316.71,162.9 27.64,0 55.72,-2.8 83.78,-8.5 305.33,-62.3 670.77,-106.2 1150.07,-138.2 589.17,-39.4 1685.67,-65.7 2279.07,-79.9 589.1,14.2 1685.6,40.5 2274.8,79.9 479.2,32 844.7,75.9 1150,138.2 157.7,31.9 315,-28.5 402.1,-156.8 106.3,-157.9 128.5,-325.9 151.9,-503.7 l 297.7,-2256.1 c 50.8,36.4 106.1,71.6 165.9,105.1 l -286.8,2174.3 c -24,181.5 -51.1,387.3 -182.8,582.9 -126,185.6 -355.2,275.3 -583.6,228.9 -297.3,-60.6 -655.2,-103.5 -1126.3,-135 -585.4,-39.1 -1679.5,-65.4 -2262.9,-79.5 -587.8,14.1 -1681.8,40.4 -2267.17,79.5 -471.14,31.5 -829.05,74.4 -1126.36,135 -228.51,46.6 -457.48,-43.3 -585.63,-231.9 -129.61,-192.6 -156.76,-398.4 -180.72,-579.9 L 6539.68,7814.8 C 6380.93,6611.4 6216.75,5367 6483.38,4138.2 c 36.38,-167.7 86.28,-344.1 258.27,-496.9 397.96,-353.6 1304.91,-456.1 2050.58,-505.9 590.92,-39.5 1728.27,-66.8 2279.07,-79.9 546.5,13.1 1683.8,40.4 2274.8,79.9 745.6,49.8 1652.6,152.3 2050.6,505.9 171.9,152.8 221.8,329.3 258.2,496.9 30.3,139.4 54.7,279 74.4,418.8 -62.8,111 -108.7,218 -142,321" /><g
         transform="scale(1.28861)"
         id="g24"><path
           id="path26"
           style="fill:#15a5e6;fill-opacity:1;fill-rule:nonzero;stroke:none"
           d="m 14736.6,3765.07 -72.6,70.78 c -561.9,547.88 -699.6,682.21 -699.6,682.21 -181.9,177.4 -355,296.98 -516.5,374.74 -331.4,-66.97 -426.9,-86.29 -426.9,-86.29 -290.4,-58.67 -528.4,-58.21 -723.3,-21.27 -8.2,-6.9 -15.8,-13.58 -22.3,-19.63 -142.4,-161.03 -573.8,-839.82 290,-1682.12 0,0 137.8,-134.34 699.6,-682.29 l 72.7,-70.78 c 561.8,-547.88 699.5,-682.2 699.5,-682.2 863.8,-842.387 1531.5,-394 1689,-247.56 142.4,161.03 573.8,839.82 -290,1682.13 0,0 -137.7,134.33 -699.6,682.28" /></g><g
         transform="scale(1.16501)"
         id="g28"><path
           id="path30"
           style="fill:#e3dce0;fill-opacity:1;fill-rule:nonzero;stroke:none"
           d="m 14874.6,5411.88 c -366.6,-74.08 -472.3,-95.46 -472.3,-95.46 -321.2,-64.89 -584.3,-64.37 -800,-23.51 -9,-7.64 -17.5,-15.02 -24.6,-21.72 -157.5,-178.11 -634.7,-928.92 320.8,-1860.58 0,0 165,-161.03 854.1,-832.95 711,295.27 1270.2,868.66 1547.4,1586.84 -689.1,671.93 -854.2,832.87 -854.2,832.87 -201.2,196.22 -392.6,328.5 -571.2,414.51" /></g><g
         transform="scale(1.1342)"
         id="g32"><path
           id="path34"
           style="fill:#ffffff;fill-opacity:1;fill-rule:nonzero;stroke:none"
           d="m 16300,4298.2 c -524.7,511.64 -650.4,634.28 -650.4,634.28 -727.6,709.4 -1289.9,331.77 -1422.5,208.43 -119.9,-135.6 -483.4,-707.29 244.2,-1416.77 0,0 125.7,-122.65 650.4,-634.29 541.5,224.83 967.2,661.44 1178.3,1208.35" /></g><g
         transform="scale(1.26354)"
         id="g36"><path
           id="path38"
           style="fill:#0e6d9d;fill-opacity:1;fill-rule:nonzero;stroke:none"
           d="m 15066.4,3493.6 c 166.3,-153.85 331.2,-309.29 492.7,-468.13 97.9,-96.24 196.7,-192.32 276.3,-304.7 116.6,-164.78 198.3,-357.88 223.8,-558.83 24.8,-195.64 -9.5,-410.83 -149.8,-558.19 -57,-59.91 78.5,-62.37 112.6,-26.44 278,291.88 204.3,745.21 24.5,1068.27 -153.1,275.02 -407.3,486.34 -633.2,699.86 -72.4,68.38 -144.9,136.44 -217.9,204.03 -37.7,34.9 -169.1,-18.76 -129,-55.87 v 0" /></g><g
         transform="scale(1.2151)"
         id="g40"><path
           id="path42"
           style="fill:#45b5eb;fill-opacity:1;fill-rule:nonzero;stroke:none"
           d="m 15303.5,1591.39 c -218.9,213.49 -223.3,563.99 -9.8,782.99 213.4,218.91 564,223.35 782.9,9.79 219,-213.48 223.4,-563.99 9.9,-782.98 -213.5,-218.91 -564.1,-223.28 -783,-9.8" /></g><g
         transform="scale(1.16269)"
         id="g44"><path
           id="path46"
           style="fill:#45b5eb;fill-opacity:1;fill-rule:nonzero;stroke:none"
           d="m 15797.1,2789.64 c -110.5,107.77 -112.7,284.69 -5,395.21 107.8,110.52 284.7,112.67 395.2,4.99 110.5,-107.77 112.7,-284.69 4.9,-395.21 -107.6,-110.52 -284.6,-112.75 -395.1,-4.99" /></g><g
         transform="scale(1.28263)"
         id="g48"><path
           id="path50"
           style="fill:#15a5e6;fill-opacity:1;fill-rule:nonzero;stroke:none"
           d="m 11521.3,5540.49 c 53,-209.34 372.2,-951.72 1560.3,-711.59 0,0 189.5,38.28 962.3,194.44 l 99.8,20.2 c 772.9,156.16 962.4,194.52 962.4,194.52 1188.1,240.05 1193.9,1048.08 1161.5,1261.62 -53,209.34 -372.2,951.72 -1560.3,711.59 0,0 -189.5,-38.28 -962.3,-194.45 l -99.8,-20.19 c -772.9,-156.16 -962.4,-194.52 -962.4,-194.52 -1188.1,-240.06 -1193.9,-1048.08 -1161.5,-1261.62" /></g><g
         transform="scale(1.28263)"
         id="g52"><path
           id="path54"
           style="fill:#e3dce0;fill-opacity:1;fill-rule:nonzero;stroke:none"
           d="m 14043.9,5023.34 c 856.9,173.16 1062.2,214.72 1062.2,214.72 1188.1,240.05 1193.9,1048.08 1161.5,1261.62 -53,209.34 -372.2,951.72 -1560.3,711.59 0,0 -205.2,-41.48 -1062.1,-214.64 -142.4,-684.61 1.7,-1397.67 398.7,-1973.29" /></g><g
         transform="scale(1.25526)"
         id="g56"><path
           id="path58"
           style="fill:#ffffff;fill-opacity:1;fill-rule:nonzero;stroke:none"
           d="m 14591,5452.99 c 649.1,131.2 804.6,162.59 804.6,162.59 899.9,181.88 904.4,793.94 879.9,955.74 -40.3,158.61 -282,720.89 -1182,539.01 0,0 -155.5,-31.39 -804.6,-162.59 -107.8,-518.62 1.3,-1058.75 302.1,-1494.75" /></g><g
         transform="scale(1.08621)"
         id="g60"><path
           id="path62"
           style="fill:#0e6d9d;fill-opacity:1;fill-rule:nonzero;stroke:none"
           d="m 16201.4,6077.53 c -251.8,-57.82 -504.1,-113.52 -757.6,-163.5 -154.2,-30.48 -308.7,-62.15 -466.5,-62.98 -233.1,-1.28 -469.1,51.37 -674.2,163.6 -200,109.46 -365.4,285.58 -414.2,512.79 -10.4,48.42 -173.1,8.38 -162.1,-43.36 98.3,-457.65 609.9,-676.39 1032.1,-709.62 373,-29.46 748.2,75.49 1109.7,154.3 117.3,25.59 234.6,51.55 351.6,78.43 20.7,4.79 79.8,26.42 71.6,56.89 -8.4,31.12 -71.6,17.68 -90.4,13.45 v 0" /></g><g
         transform="scale(1.02399)"
         id="g64"><path
           id="path66"
           style="fill:#45b5eb;fill-opacity:1;fill-rule:nonzero;stroke:none"
           d="m 15454,8216.02 c 355.7,71.87 702.2,-158.11 774.1,-513.88 71.9,-355.67 -158.1,-702.25 -513.8,-774.13 -355.7,-71.87 -702.3,158.21 -774.2,513.88 -71.9,355.67 158.2,702.25 513.9,774.13" /></g><g
         transform="scale(1.07078)"
         id="g68"><path
           id="path70"
           style="fill:#45b5eb;fill-opacity:1;fill-rule:nonzero;stroke:none"
           d="m 15909.4,7343.72 c 164.1,33.25 324.3,-73.03 357.4,-237.31 33.2,-164.27 -73,-324.34 -237.3,-357.49 -164.2,-33.25 -324.3,73.03 -357.5,237.3 -33.2,164.28 73.1,324.34 237.4,357.5" /></g><path
         id="path72"
         style="fill:#15a5e6;fill-opacity:1;fill-rule:nonzero;stroke:none"
         d="m 5804.54,5748.6 c -206,185.3 -1075.87,748.6 -2170.75,-355.2 0,0 -174.62,-176 -886.8,-894 l -92.03,-92.8 c -712.18,-717.9 -886.8,-894 -886.8,-894 C 673.281,2408.8 1243.71,1543.5 1430.63,1339.1 c 205.99,-185.3 1075.86,-748.698 2170.75,355.1 0,0 174.62,176.1 886.8,894 l 92.02,92.8 c 712.18,718 886.81,894 886.81,894 1094.88,1103.8 524.45,1969.1 337.53,2173.6" /><path
         id="path74"
         style="fill:#e3dce0;fill-opacity:1;fill-rule:nonzero;stroke:none"
         d="M 2746.99,4499.4 C 1957.34,3703.3 1768.16,3512.6 1768.16,3512.6 673.281,2408.8 1243.71,1543.5 1430.63,1339.1 c 205.99,-185.3 1075.86,-748.698 2170.75,355.1 0,0 189.18,190.7 978.82,986.8 -336.87,831.2 -999.3,1488.3 -1833.21,1818.4" /><path
         id="path76"
         style="fill:#ffffff;fill-opacity:1;fill-rule:nonzero;stroke:none"
         d="m 2719.39,3997.4 c -585.4,-590.2 -725.64,-731.6 -725.64,-731.6 -811.69,-818.3 -388.8,-1459.7 -250.23,-1611.3 152.71,-137.4 797.59,-555 1609.27,263.3 0,0 140.26,141.4 725.65,731.5 -249.73,616.3 -740.83,1103.4 -1359.05,1348.1" /><path
         id="path78"
         style="fill:#0e6d9d;fill-opacity:1;fill-rule:nonzero;stroke:none"
         d="m 3231.57,4624.9 c 189.03,200.9 379.97,400.1 574.8,595.4 115.71,115.9 231.21,234.4 363.76,331.4 199.05,145.6 435.16,248.2 681.26,275.6 240.13,26.8 488.85,-30.7 665.58,-201.9 41.35,-40 206.81,25.3 164,66.8 -376.24,364.4 -992.42,251.6 -1411.84,32.4 -364.97,-190.7 -643.8,-518.8 -925.47,-811.4 -92.11,-95.7 -183.87,-191.8 -274.91,-288.5 -29.3,-31.1 25.02,-45.8 46.27,-46.4 41.96,-1.2 87.78,16.1 116.55,46.6 v 0" /><path
         id="path80"
         style="fill:#45b5eb;fill-opacity:1;fill-rule:nonzero;stroke:none"
         d="m 5661.51,4080.2 c -261.67,-263.8 -687.66,-265.6 -951.46,-3.9 -263.81,261.7 -265.53,687.7 -3.86,951.5 261.67,263.8 687.65,265.5 951.46,3.8 263.8,-261.6 265.53,-687.6 3.86,-951.4" /><path
         id="path82"
         style="fill:#45b5eb;fill-opacity:1;fill-rule:nonzero;stroke:none"
         d="m 4349.77,3863.2 c -126.37,-127.4 -332.09,-128.2 -459.49,-1.8 -127.4,126.3 -128.23,332.1 -1.87,459.5 126.37,127.4 332.09,128.2 459.49,1.8 127.4,-126.3 128.24,-332.1 1.87,-459.5" /><g
         transform="scale(1.12567)"
         id="g84"><path
           id="path86"
           style="fill:#15a5e6;fill-opacity:1;fill-rule:nonzero;stroke:none"
           d="m 9833.33,15506.9 c -2233,0 -4069.87,347.5 -4292.78,793.1 h -22.75 v -2779.4 l 338.69,-71.3 c 2564.92,-540.1 5242.21,-549.2 7812.11,-26.4 l 480.3,97.7 V 16300 h -22.7 c -222.9,-445.6 -2059.8,-793.1 -4292.87,-793.1" /></g><g
         transform="scale(1.19305)"
         id="g88"><path
           id="path90"
           style="fill:#008fc8;fill-opacity:1;fill-rule:nonzero;stroke:none"
           d="m 13349.8,15465.5 c 0,460.9 -1823,834.5 -4071.83,834.5 -2248.78,0 -4071.8,-373.6 -4071.8,-834.5 0,-460.8 1823.02,-834.4 4071.8,-834.4 2248.83,0 4071.83,373.6 4071.83,834.4" /></g><path
         id="path92"
         style="fill:#afa8ac;fill-opacity:1;fill-rule:nonzero;stroke:none"
         d="m 6946.08,13376.1 c 1031.9,-289.1 2091.02,-463.9 3161.12,-523 1067.3,-58.9 2142.7,-0.8 3197.6,172.2 597.6,98 1189.4,232.2 1770.4,403.1 47.3,13.9 167.2,55.2 151.1,124.5 -15.5,66.9 -153.6,44 -193.2,32.4 -982.9,-289.1 -1997.4,-472.4 -3020,-540.3 -1027.8,-68.3 -2062.21,-27.4 -3080.97,125.4 -576.54,86.4 -1148.49,207.3 -1709.92,364.6 -80.69,22.6 -170.67,7.4 -243.11,-35 -34.81,-20.4 -114.91,-100.9 -33.02,-123.9 v 0" /><path
         id="path94"
         style="fill:#afa8ac;fill-opacity:1;fill-rule:nonzero;stroke:none"
         d="m 7450.69,14448.9 c 903.83,-253.1 1830.95,-406.4 2768.21,-458.2 934.5,-51.6 1876.3,-0.9 2799.9,150.8 523.8,85.9 1042.5,203.5 1551.8,353.2 47.3,13.9 167.2,55.2 151.1,124.5 -15.5,66.9 -153.6,44 -193.2,32.3 -855.3,-251.4 -1738.1,-411.5 -2628,-470.3 -895.2,-59.3 -1795.8,-24 -2683.05,109 -502.57,75.4 -1001.22,180.5 -1490.63,317.6 -80.69,22.6 -170.67,7.4 -243.12,-35 -34.8,-20.4 -114.92,-100.9 -33.01,-123.9 v 0" /><g
         transform="scale(1.09306)"
         id="g96"><path
           id="path98"
           style="fill:#0e6d9d;fill-opacity:1;fill-rule:nonzero;stroke:none"
           d="m 6003.01,16211.2 c 0,-602.8 0,-1205.6 0,-1808.4 0,-70 161.36,-37.4 161.36,18.8 0,602.8 0,1205.6 0,1808.4 0,70 -161.36,37.4 -161.36,-18.8 v 0" /></g><g
         transform="scale(1.07169)"
         id="g100"><path
           id="path102"
           style="fill:#0e6d9d;fill-opacity:1;fill-rule:nonzero;stroke:none"
           d="m 6926.33,16209.4 c 0,-614.8 0,-1229.6 0,-1844.4 0,-71.4 164.59,-38.1 164.59,19.2 0,614.8 0,1229.6 0,1844.4 0,71.4 -164.59,38.1 -164.59,-19.2 v 0" /></g><g
         transform="scale(1.05304)"
         id="g104"><path
           id="path106"
           style="fill:#0e6d9d;fill-opacity:1;fill-rule:nonzero;stroke:none"
           d="m 7866.88,16207.8 c 0,-625.7 0,-1251.4 0,-1877.1 0,-72.6 167.51,-38.8 167.51,19.5 0,625.7 0,1251.4 0,1877.2 0,72.6 -167.51,38.7 -167.51,-19.6 v 0" /></g><g
         transform="scale(1.04677)"
         id="g108"><path
           id="path110"
           style="fill:#0e6d9d;fill-opacity:1;fill-rule:nonzero;stroke:none"
           d="m 9020.09,16207.3 c 0,-629.5 0,-1258.9 0,-1888.4 0,-73.1 168.51,-39 168.51,19.6 0,629.5 0,1259 0,1888.4 0,73.1 -168.51,39 -168.51,-19.6 v 0" /></g><g
         transform="scale(1.05651)"
         id="g112"><path
           id="path114"
           style="fill:#0e6d9d;fill-opacity:1;fill-rule:nonzero;stroke:none"
           d="m 12598.7,16208.1 c 0,-623.6 0,-1247.3 0,-1870.9 0,-72.4 166.9,-38.7 166.9,19.4 0,623.7 0,1247.3 0,1871 0,72.4 -166.9,38.6 -166.9,-19.5 v 0" /></g><g
         transform="scale(1.07169)"
         id="g116"><path
           id="path118"
           style="fill:#0e6d9d;fill-opacity:1;fill-rule:nonzero;stroke:none"
           d="m 13421.5,16209.4 c 0,-614.8 0,-1229.6 0,-1844.4 0,-71.4 164.6,-38.1 164.6,19.2 0,614.8 0,1229.6 0,1844.4 0,71.4 -164.6,38.1 -164.6,-19.2 v 0" /></g><g
         transform="scale(1.08075)"
         id="g120"><path
           id="path122"
           style="fill:#0e6d9d;fill-opacity:1;fill-rule:nonzero;stroke:none"
           d="m 14249.6,16210.2 c 0,-609.7 0,-1219.3 0,-1829 0,-70.8 163.2,-37.8 163.2,19 0,609.7 0,1219.3 0,1829 0,70.8 -163.2,37.8 -163.2,-19 v 0" /></g><g
         transform="scale(1.04677)"
         id="g124"><path
           id="path126"
           style="fill:#0e6d9d;fill-opacity:1;fill-rule:nonzero;stroke:none"
           d="m 10234.1,16207.3 c 0,-629.5 0,-1258.9 0,-1888.4 0,-73.1 168.5,-39 168.5,19.6 0,629.5 0,1259 0,1888.4 0,73.1 -168.5,39 -168.5,-19.6 v 0" /></g><g
         transform="scale(1.04677)"
         id="g128"><path
           id="path130"
           style="fill:#0e6d9d;fill-opacity:1;fill-rule:nonzero;stroke:none"
           d="m 11448,16207.3 c 0,-629.5 0,-1258.9 0,-1888.4 0,-73.1 168.5,-39 168.5,19.6 0,629.5 0,1259 0,1888.4 0,73.1 -168.5,39 -168.5,-19.6 v 0" /></g><g
         transform="scale(1.17006)"
         id="g132"><path
           id="path134"
           style="fill:#45b5eb;fill-opacity:1;fill-rule:nonzero;stroke:none"
           d="m 10317.1,16012.6 c 0,-158.7 -707.76,-287.3 -1580.79,-287.3 -873.05,0 -1580.8,128.6 -1580.8,287.3 0,158.7 707.75,287.4 1580.8,287.4 873.03,0 1580.79,-128.7 1580.79,-287.4" /></g><g
         transform="scale(1.12492)"
         id="g136"><path
           id="path138"
           style="fill:#45b5eb;fill-opacity:1;fill-rule:nonzero;stroke:none"
           d="m 11851,16156 c 0,-79.5 -354.6,-144 -792.2,-144 -437.4,0 -792.1,64.5 -792.1,144 0,79.5 354.7,144 792.1,144 437.6,0 792.2,-64.5 792.2,-144" /></g><path
         id="path140"
         style="fill:#15a5e6;fill-opacity:1;fill-rule:nonzero;stroke:none"
         d="m 11954.3,7773.8 c 0,0 -221.6,0 -490.5,0 v -105.5 c 0,-309.2 0,-385 0,-385 0,-475.3 -310.1,-540.3 -394.7,-544.4 -84.6,4.1 -394.6,69.1 -394.6,544.4 0,0 0,75.8 0,385 v 105.5 h -105.6 c -309.1,0 -384.9,0 -384.9,0 -475.33,0 -540.33,310.1 -544.47,394.7 4.14,84.6 69.14,394.7 544.47,394.7 0,0 75.8,0 384.9,0 h 105.6 c 0,268.8 0,490.5 0,490.5 0,475.3 310,540.3 394.6,544.4 84.6,-4.1 394.7,-69.1 394.7,-544.4 0,0 0,-221.7 0,-490.5 268.9,0 490.5,0 490.5,0 475.3,0 540.3,-310.1 544.5,-394.7 -4.2,-84.6 -69.2,-394.7 -544.5,-394.7 z m -885.2,2402 c -1108.57,0 -2007.29,-898.7 -2007.29,-2007.3 0,-1108.6 898.72,-2007.3 2007.29,-2007.3 1108.7,0 2007.4,898.7 2007.4,2007.3 0,1108.6 -898.7,2007.3 -2007.4,2007.3" /><path
         id="path142"
         style="fill:#15a5e6;fill-opacity:1;fill-rule:nonzero;stroke:none"
         d="m 8639.5,5428.4 c -45.91,12.3 -101.84,-2.6 -135.53,-37.3 l -480.01,-493.3 c -179.86,184.9 -359.76,369.8 -539.62,554.6 -33.24,34.2 -89.19,29.2 -129.02,10.2 -26.61,-12.7 -80.95,-59 -47.35,-93.6 l 192.6,-197.9 c -7.88,-6.7 -12.93,-14 -12.93,-22.1 V 4143.6 c 0,-24.4 116.55,-51.6 116.55,0 l 6.07,919.9 322.17,-336.2 c 33.25,-34.2 89.2,-29.2 129.02,-10.2 20.9,9.9 58.3,40.7 57.36,70.1 l 261.4,283.5 v -927.1 c 0,-25 121.34,-52 121.34,0 v 1037 l 159.75,164.2 c 29.37,30.1 18.69,72.8 -21.8,83.6" /><path
         id="path144"
         style="fill:#15a5e6;fill-opacity:1;fill-rule:nonzero;stroke:none"
         d="m 9372.27,5339.9 c 41.69,0 102.95,-0.8 108.4,45 6.07,50.9 -53.04,61.7 -89.81,61.7 l -393.08,-31.3 -69.63,-2.6 c -5.7,0.3 -11.04,0.1 -16.25,-0.7 l -32.69,-1.2 c -38.44,-8.5 -81.7,-4 -86.24,-42.1 -5.9,-49.4 49.33,-30.2 86.24,-29 v -484.9 c -38.44,-8.5 -81.7,-4 -86.24,-42.1 -5.9,-49.4 49.33,-30.2 86.24,-29 v -563.2 c -38.44,-8.5 -81.7,-4 -86.24,-42.2 -6.08,-50.9 53.03,-28.7 89.81,-28.7 h 489.49 c 41.69,0 102.95,-0.8 108.4,45 6.07,50.9 -53.04,61.6 -89.81,61.6 L 8997.78,4225 v 558.9 h 374.49 c 41.69,0 102.95,-0.8 108.4,45 6.07,50.9 -53.04,61.7 -89.81,61.7 l -393.08,-31.3 v 480.6 h 374.49" /><path
         id="path146"
         style="fill:#15a5e6;fill-opacity:1;fill-rule:nonzero;stroke:none"
         d="m 14659.6,4784.5 c 39.7,0 98,-0.8 103.2,42.8 5.8,48.5 -50.5,58.7 -85.5,58.7 l -374.2,-29.7 v 457.5 h 356.5 c 39.7,0 98,-0.8 103.2,42.8 5.8,48.5 -50.5,58.7 -85.5,58.7 l -374.2,-29.7 -66.3,-2.6 c -5.4,0.3 -10.5,0.2 -15.5,-0.5 l -31.1,-1.2 c -36.6,-8.1 -77.8,-3.8 -82.1,-40.1 -5.6,-47.1 47,-28.7 82.1,-27.6 V 4852 c -36.6,-8.1 -77.8,-3.8 -82.1,-40.2 -5.6,-47 47,-28.7 82.1,-27.5 v -536.2 c -36.6,-8.1 -77.8,-3.8 -82.1,-40.1 -5.8,-48.5 50.5,-27.4 85.5,-27.4 h 466 c 39.7,0 98,-0.8 103.2,42.8 5.8,48.5 -50.5,58.7 -85.5,58.7 l -374.2,-29.7 v 532.1 h 356.5" /><path
         id="path148"
         style="fill:#15a5e6;fill-opacity:1;fill-rule:nonzero;stroke:none"
         d="M 10881.5,5444.2 V 4116.6 c 0,-18.9 113.9,-2.6 113.9,30.6 v 1327.5 c 0,18.9 -113.9,2.7 -113.9,-30.5" /><path
         id="path150"
         style="fill:#15a5e6;fill-opacity:1;fill-rule:nonzero;stroke:none"
         d="M 12421.4,5444.2 V 4116.6 c 0,-18.9 113.9,-2.6 113.9,30.6 v 1327.5 c 0,18.9 -113.9,2.7 -113.9,-30.5" /><path
         id="path152"
         style="fill:#15a5e6;fill-opacity:1;fill-rule:nonzero;stroke:none"
         d="m 10538.8,4736.5 c -4.8,-162.4 -62.3,-323.7 -203.1,-415.8 -146.3,-95.7 -329.6,-109.6 -499.59,-98.4 -0.42,0.1 -0.88,0 -1.32,0 v 1138.6 c 212.21,12.4 478.71,4.9 614.61,-181.6 86.8,-119.2 93.6,-300.8 89.4,-442.8 z m 62.1,415.2 c -57.6,125.6 -170.9,201.1 -300.5,239 -150.4,44 -310.51,42.1 -465.61,32.1 v 52.4 c 0,19.4 -117.31,2.7 -117.31,-31.5 V 4116.2 c 0,-19.5 117.31,-2.8 117.31,31.4 v 8.1 c 332.81,-10.7 727.41,100.9 806.11,468.2 18.9,88 18.5,179.5 11.2,268.8 -7.2,86.9 -14.3,178.8 -51.2,259" /><path
         id="path154"
         style="fill:#15a5e6;fill-opacity:1;fill-rule:nonzero;stroke:none"
         d="m 12040.9,4180.2 c -191.7,-14.3 -397.4,24.5 -538.7,163.8 -158.6,156.3 -162.2,404.4 -141.5,610.6 16.9,168.3 57,335.5 224.8,411.8 129.2,58.7 283.2,52 421.3,41.5 44.2,-3.4 125.9,59.2 46.5,65.2 -252.2,19.2 -579.7,1.2 -729.4,-238.4 -92.4,-147.8 -97.8,-355.4 -89.5,-524.7 9,-187 76.6,-366.1 235.3,-475 161.8,-110.8 363.6,-132.4 554.5,-118.2 57.3,4.3 98.8,69.6 16.7,63.4" /><path
         id="path156"
         style="fill:#15a5e6;fill-opacity:1;fill-rule:nonzero;stroke:none"
         d="m 13701.4,4257.7 c -1.7,407 -9.6,813.9 -9.7,1220.9 -0.1,57.9 -112.2,41.4 -112.2,-8.4 0.2,-342.6 6,-685.2 8.8,-1027.7 -187.7,318.1 -356.6,647.7 -556.3,958.6 v 80 c 0,32.2 -51.4,31.2 -84.2,15.6 -35.3,-2.9 -88.7,-29 -83.3,-37.1 19.5,-29 37.9,-58.6 56.7,-88 V 4114.4 c 0,-47 110.8,-24.1 110.8,13.4 v 1065.3 c 158.4,-265 302.3,-538.8 460.1,-804.2 -0.2,-0.8 -1.2,-1.9 -0.8,-2.5 35.1,-53.1 66.3,-108.5 98.1,-163.6 0.2,-35.3 0.5,-70.6 0.6,-105.9 0,-44.1 64.7,-44.9 95.7,-20.8 12.2,1.6 24.4,5.3 36.1,10.1 31.6,7.1 64.7,19.9 58.1,29.7 -26.9,40.1 -52.7,81 -78.5,121.8" /></g></g></svg>