<?xml version="1.0" encoding="UTF-8" standalone="no"?>
<svg
   xmlns:dc="http://purl.org/dc/elements/1.1/"
   xmlns:cc="http://creativecommons.org/ns#"
   xmlns:rdf="http://www.w3.org/1999/02/22-rdf-syntax-ns#"
   xmlns:svg="http://www.w3.org/2000/svg"
   xmlns="http://www.w3.org/2000/svg"
   viewBox="0 0 3010.6667 2658.6667"
   height="2658.6667"
   width="3010.6667"
   xml:space="preserve"
   id="svg2"
   version="1.1"><metadata
     id="metadata8"><rdf:RDF><cc:Work
         rdf:about=""><dc:format>image/svg+xml</dc:format><dc:type
           rdf:resource="http://purl.org/dc/dcmitype/StillImage" /></cc:Work></rdf:RDF></metadata><defs
     id="defs6" /><g
     transform="matrix(1.3333333,0,0,-1.3333333,0,2658.6667)"
     id="g10"><g
       transform="scale(0.1)"
       id="g12"><g
         transform="scale(1.31291)"
         id="g14"><path
           id="path16"
           style="fill:#5391d4;fill-opacity:1;fill-rule:nonzero;stroke:none"
           d="m 16164.5,7522.66 h -1830.4 l 5.5,5.56 c 1345.4,1345.44 1345.4,3526.78 0,4872.28 -1345.4,1345.4 -3526.8,1345.4 -4872.19,0 l -868.83,-868.9 -868.83,868.9 c -1345.43,1345.4 -3526.79,1345.4 -4872.23,0 v 0 c -1345.44,-1345.5 -1345.44,-3526.84 0,-4872.28 l 5.56,-5.56 H 1032.65 c -135.287,0 -135.493,-210.3 0,-210.3 h 2040.7 l 653,-652.98 -1.96,-1.97 4876.17,-4872.22 4872.24,4872.22 -1.9,1.97 652.9,652.98 h 2040.7 c 135.3,0 135.5,210.3 0,210.3" /></g><g
         transform="scale(1.31291)"
         id="g18"><path
           id="path20"
           style="fill:#95cbef;fill-opacity:1;fill-rule:nonzero;stroke:none"
           d="m 16164.5,7522.66 h -3396.4 c -218.4,788.26 -436.8,1576.55 -655.2,2364.82 -31.4,113.52 -62.9,226.92 -94.3,340.42 -28.8,103.8 -170.5,95.9 -202.7,0 -288.3,-855.85 -576.6,-1711.72 -864.9,-2567.58 -13.3,-39.33 -26.5,-78.66 -39.8,-117.94 -143.4,285.06 -286.8,570.15 -430.2,855.24 -43.8,86.94 -164.1,53.82 -192.1,-25.12 -155.6,-438.46 -311.4,-876.96 -466.93,-1315.45 -91.02,249.52 -182.04,498.96 -272.98,748.43 -199.79,547.66 -399.5,1095.35 -599.2,1643 -46.08,126.17 -92.09,252.39 -138.09,378.57 -31.92,87.5 -182.96,111.69 -202.76,0 L 8294.75,8053.09 C 8128.1,7112.04 7961.45,6171.08 7794.8,5230.05 c -8.08,-45.48 -16.15,-91.02 -24.22,-136.57 -80.74,360.8 -161.55,721.52 -242.33,1082.25 -188.75,842.86 -377.53,1685.69 -566.28,2528.52 l -129.31,577.43 c -18.92,84.44 -153.34,106.73 -192.13,25.08 -156.47,-329.3 -312.94,-658.59 -469.38,-987.93 -234.84,673.99 -469.7,1347.97 -704.51,2021.97 -37.4,107.3 -74.77,214.5 -112.14,321.8 -32.28,92.6 -176.85,107 -202.73,0 -87.71,-362.3 -175.4,-724.55 -263.04,-1086.81 -139.81,-577.47 -279.59,-1154.96 -419.37,-1732.46 -25.88,-106.88 -51.74,-213.81 -77.62,-320.67 H 1032.65 c -135.287,0 -135.493,-210.3 0,-210.3 h 3441.8 c 44.92,0 90.54,32.52 101.34,77.16 87.68,362.32 175.39,724.58 263.07,1086.85 139.77,577.5 279.55,1154.97 419.33,1732.43 4.41,18.2 8.81,36.4 13.22,54.6 223.7,-642.18 447.47,-1284.3 671.21,-1926.45 37.37,-107.26 74.73,-214.55 112.14,-321.83 27.01,-77.5 150.37,-113.03 192.14,-25.11 149.47,314.6 298.92,629.24 448.4,943.83 96.75,-431.94 193.48,-863.85 290.21,-1295.8 188.74,-842.85 377.49,-1685.63 566.27,-2528.49 l 129.3,-577.42 c 21.94,-97.64 184.55,-102.9 202.76,0 l 314.18,1773.99 c 166.66,940.97 333.31,1882.01 499.96,2823.02 15.84,89.26 31.61,178.55 47.45,267.84 79.67,-218.66 159.5,-437.31 239.24,-655.93 199.71,-547.65 399.42,-1095.34 599.12,-1643.02 46.09,-126.13 92.09,-252.34 138.09,-378.55 36.03,-98.86 167.11,-100.31 202.76,0 160.76,452.81 321.46,905.67 482.26,1358.5 144.3,-286.84 288.5,-573.68 432.8,-860.45 43.3,-85.99 165.2,-54.84 192.2,25.06 288.3,855.93 576.6,1711.79 864.8,2567.65 3.6,10.5 7.1,21.01 10.6,31.54 195.1,-703.92 390.2,-1407.86 585.1,-2111.78 31.4,-113.48 63,-227 94.4,-340.48 12.3,-44.49 55.1,-77.16 101.3,-77.16 h 3476.4 c 135.3,0 135.5,210.3 0,210.3" /></g></g></g></svg>