<?xml version="1.0" encoding="UTF-8" standalone="no"?>
<svg
   xmlns:dc="http://purl.org/dc/elements/1.1/"
   xmlns:cc="http://creativecommons.org/ns#"
   xmlns:rdf="http://www.w3.org/1999/02/22-rdf-syntax-ns#"
   xmlns:svg="http://www.w3.org/2000/svg"
   xmlns="http://www.w3.org/2000/svg"
   viewBox="0 0 1496 1496"
   height="1496"
   width="1496"
   xml:space="preserve"
   id="svg2"
   version="1.1"><metadata
     id="metadata8"><rdf:RDF><cc:Work
         rdf:about=""><dc:format>image/svg+xml</dc:format><dc:type
           rdf:resource="http://purl.org/dc/dcmitype/StillImage" /></cc:Work></rdf:RDF></metadata><defs
     id="defs6" /><g
     transform="matrix(1.3333333,0,0,-1.3333333,0,1496)"
     id="g10"><g
       transform="scale(0.1)"
       id="g12"><path
         id="path14"
         style="fill:#ffffff;fill-opacity:1;fill-rule:nonzero;stroke:none"
         d="M 11220,0 H 0 V 11220 H 11220 V 0" /><path
         id="path16"
         style="fill:#616e7d;fill-opacity:1;fill-rule:nonzero;stroke:none"
         d="m 5402.5,5427.1 c 0,-748.33 606.35,-1354.75 1354.45,-1354.75 748.21,0 1354.38,606.42 1354.38,1354.75 0,747.98 -606.17,1354.57 -1354.38,1354.57 -748.1,0 -1354.45,-606.59 -1354.45,-1354.57" /><path
         id="path18"
         style="fill:#616e7d;fill-opacity:1;fill-rule:nonzero;stroke:none"
         d="M 7261.56,2272.17 H 6252.39 l -292.08,1533.71 c 28.51,2.15 57.25,4.33 86.67,4.33 h 1420.17 c 29.17,0 57.8,-2.18 86.37,-4.33 z M 5973.02,3944.72 c -703.37,0 -1273.35,-570.17 -1273.35,-1273.33 v -617.94 h 4114.55 v 617.94 c 0,703.16 -569.92,1273.33 -1273.29,1273.33 H 5973.02" /><path
         id="path20"
         style="fill:#ffffff;fill-opacity:1;fill-rule:nonzero;stroke:none"
         d="m 6916.59,3303.26 156.82,-1031.09 h 188.15 l 291.96,1533.71 c -28.57,2.15 -57.2,4.33 -86.37,4.33 H 6046.98 c -29.42,0 -58.16,-2.18 -86.67,-4.33 l 292.08,-1533.71 h 187.97 l 157.11,1031.09 h 5.39 l -154.02,283.12 h 616.16 0.11 l -154.08,-283.12 h 5.56" /><path
         id="path22"
         style="fill:#aad4c8;fill-opacity:1;fill-rule:nonzero;stroke:none"
         d="m 6440.36,2272.17 h 633.05 l -156.82,1031.09 h -5.56 l 154.08,283.12 H 7065 6448.84 l 154.02,-283.12 h -5.39 L 6440.36,2272.17" /><path
         id="path24"
         style="fill:#616e7d;fill-opacity:1;fill-rule:nonzero;stroke:none"
         d="m 4661.12,6009.8 c 0,-12.29 -11.38,-22.09 -25.3,-22.09 H 3901.4 c -13.86,0 -25.05,9.8 -25.05,22.09 v 38.79 c 0,11.92 11.19,21.73 25.05,21.73 h 734.42 c 13.92,0 25.3,-9.81 25.3,-21.73 z m 0,-196.18 c 0,-12.11 -11.38,-21.91 -25.3,-21.91 H 3901.4 c -13.86,0 -25.05,9.8 -25.05,21.91 v 38.79 c 0,12.14 11.19,21.91 25.05,21.91 h 734.42 c 13.92,0 25.3,-9.77 25.3,-21.91 z m 0,-196 c 0,-12.34 -11.38,-21.94 -25.3,-21.94 H 3901.4 c -13.86,0 -25.05,9.6 -25.05,21.94 v 38.77 c 0,12.16 11.19,21.94 25.05,21.94 h 734.42 c 13.92,0 25.3,-9.78 25.3,-21.94 z m -997.08,1660.99 c -4.05,-16.4 -18.52,-27.96 -35.22,-27.96 h -9.81 c -11.44,0 -22.03,5.27 -29.05,14.47 -6.96,9.2 -9.26,20.75 -6.35,31.89 70.32,281.78 297.03,499.9 577,555.51 23.12,4.67 43.57,-13.7 43.57,-36.82 v -9.59 c 0,-17.61 -12.58,-32.87 -29.59,-36.44 -246.5,-49.32 -447.07,-242.17 -510.55,-491.06 z m 1624.01,-166.19 c 0,572.89 -457.17,1039.08 -1019.47,1039.08 -562.18,0 -1019.35,-466.19 -1019.35,-1039.08 0,-405.73 229.43,-757.78 563.08,-928.72 l -1.93,-19.57 -0.37,-4.12 v -522.59 c 0,-95.35 75.9,-173.09 169.89,-173.09 h 55.07 v -4.12 h 467.4 v 4.12 h 55.13 c 93.69,0 170.07,77.74 170.07,173.09 v 522.59 l -0.49,4.12 -1.93,19.57 c 333.47,170.94 562.9,522.99 562.9,928.72" /><path
         id="path26"
         style="fill:#aad4c8;fill-opacity:1;fill-rule:nonzero;stroke:none"
         d="m 4034.97,5403.8 c 0,-93.38 79.28,-98.46 176.18,-98.46 h 114.98 c 97.32,0 176.24,5.08 176.24,98.46 v 56.41 h -467.4 v -56.41" /><path
         id="path28"
         style="fill:#aad4c8;fill-opacity:1;fill-rule:nonzero;stroke:none"
         d="m 4192.75,9090.75 v -588.38 c 0,-41.67 33.83,-75.74 76.01,-75.74 41.88,0 75.95,34.07 75.95,75.74 v 588.38 c 0,41.73 -34.07,75.8 -75.95,75.8 -42.18,0 -76.01,-34.07 -76.01,-75.8" /><path
         id="path30"
         style="fill:#aad4c8;fill-opacity:1;fill-rule:nonzero;stroke:none"
         d="m 2512.45,8006.01 c -38.25,17.07 -83.09,-0.18 -100.09,-38.55 -17.07,-38.19 0.24,-83.04 38.78,-100.04 l 537.37,-238.69 c 38.31,-17.01 83.34,0.17 100.16,38.36 17.06,38.37 -0.3,83.22 -38.61,100.29 l -537.61,238.63" /><path
         id="path32"
         style="fill:#aad4c8;fill-opacity:1;fill-rule:nonzero;stroke:none"
         d="m 6010.61,8006.01 -537.49,-238.63 c -38.19,-17.07 -55.56,-61.92 -38.55,-100.29 17.01,-38.19 61.91,-55.37 100.22,-38.36 l 537.48,238.69 c 38.37,17 55.56,61.85 38.56,100.04 -17.01,38.37 -61.92,55.62 -100.22,38.55" /></g></g></svg>